STARTFONT 2.1
FONT -Misc-Fixed-Medium-R-Normal--7-70-75-75-C-50-ISO8859-5
SIZE 7 75 75
FONTBOUNDINGBOX 9 9 0 -1
COMMENT "Generated by fontforge, http://fontforge.sourceforge.net"
STARTPROPERTIES 23
FONTNAME_REGISTRY ""
FOUNDRY "Misc"
FAMILY_NAME "Fixed"
WEIGHT_NAME "Medium"
SLANT "R"
SETWIDTH_NAME "Normal"
ADD_STYLE_NAME ""
PIXEL_SIZE 7
POINT_SIZE 70
RESOLUTION_X 75
RESOLUTION_Y 75
SPACING "C"
AVERAGE_WIDTH 50
CHARSET_REGISTRY "ISO8859"
CHARSET_ENCODING "5"
DESTINATION 1
COPYRIGHT "Public domain font.  Share and enjoy."
_XMBDFED_INFO "Edited with xmbdfed 4.5."
CAP_HEIGHT 6
X_HEIGHT 4
WEIGHT 10
RESOLUTION 103
QUAD_WIDTH 5
ENDPROPERTIES
CHARS 206
STARTCHAR char0
ENCODING 0
SWIDTH 685 0
DWIDTH 5 0
BBX 5 5 0 0
BITMAP
A8
00
88
00
A8
ENDCHAR
STARTCHAR uni0001
ENCODING 1
SWIDTH 857 0
DWIDTH 6 0
BBX 5 8 0 0
BITMAP
08
08
08
28
48
F8
40
20
ENDCHAR
STARTCHAR uni0002
ENCODING 2
SWIDTH 428 0
DWIDTH 3 0
BBX 3 3 0 3
BITMAP
40
A0
40
ENDCHAR
STARTCHAR C112
ENCODING 3
SWIDTH 1200 0
DWIDTH 6 0
BBX 5 5 0 0
BITMAP
F8
F8
F8
F8
F8
ENDCHAR
STARTCHAR C110
ENCODING 4
SWIDTH 1200 0
DWIDTH 6 0
BBX 5 5 0 0
BITMAP
F8
88
88
88
F8
ENDCHAR
STARTCHAR therm
ENCODING 5
SWIDTH 576 0
DWIDTH 6 0
BBX 5 8 0 0
BITMAP
20
50
50
50
70
F8
F8
70
ENDCHAR
STARTCHAR C101
ENCODING 6
SWIDTH 1800 0
DWIDTH 9 0
BBX 7 5 0 0
BITMAP
1C
FE
82
82
FE
ENDCHAR
STARTCHAR ready
ENCODING 7
SWIDTH 576 0
DWIDTH 6 0
BBX 5 8 0 0
BITMAP
88
50
20
88
20
50
88
88
ENDCHAR
STARTCHAR exton
ENCODING 8
SWIDTH 1142 0
DWIDTH 8 0
BBX 8 7 0 0
BITMAP
5E
FF
FF
EF
66
34
18
ENDCHAR
STARTCHAR exton2
ENCODING 9
SWIDTH 1000 0
DWIDTH 8 0
BBX 8 7 0 0
BITMAP
7E
DF
CF
EF
7E
3C
18
ENDCHAR
STARTCHAR extoff
ENCODING 10
SWIDTH 1000 0
DWIDTH 8 0
BBX 8 7 0 0
BITMAP
7E
C3
81
81
42
24
18
ENDCHAR
STARTCHAR heatbedoff
ENCODING 11
SWIDTH 1000 0
DWIDTH 8 0
BBX 8 4 0 -1
BITMAP
7E
81
81
FF
ENDCHAR
STARTCHAR headbedon
ENCODING 12
SWIDTH 576 0
DWIDTH 8 0
BBX 8 9 0 -1
BITMAP
82
D3
59
08
00
7E
FF
FF
FF
ENDCHAR
STARTCHAR heatbedon1
ENCODING 13
SWIDTH 1142 0
DWIDTH 8 0
BBX 8 9 0 -1
BITMAP
10
9A
CB
41
00
7E
FF
FF
FF
ENDCHAR
STARTCHAR extoff
ENCODING 14
SWIDTH 1285 0
DWIDTH 9 0
BBX 9 9 0 -1
BITMAP
7300
8A80
DC80
3E80
7700
BE00
9D80
A880
6700
ENDCHAR
STARTCHAR uni000F
ENCODING 15
SWIDTH 700 0
DWIDTH 9 0
BBX 9 9 0 -1
BITMAP
3C00
4300
5C80
BE80
B680
BE80
9D00
6100
1E00
ENDCHAR
STARTCHAR space
ENCODING 32
SWIDTH 685 0
DWIDTH 5 0
BBX 1 1 4 -1
BITMAP
00
ENDCHAR
STARTCHAR exclam
ENCODING 33
SWIDTH 685 0
DWIDTH 5 0
BBX 1 6 2 0
BITMAP
80
80
80
80
00
80
ENDCHAR
STARTCHAR quotedbl
ENCODING 34
SWIDTH 685 0
DWIDTH 5 0
BBX 3 3 1 3
BITMAP
A0
A0
A0
ENDCHAR
STARTCHAR numbersign
ENCODING 35
SWIDTH 685 0
DWIDTH 5 0
BBX 5 5 0 0
BITMAP
50
F8
50
F8
50
ENDCHAR
STARTCHAR dollar
ENCODING 36
SWIDTH 685 0
DWIDTH 5 0
BBX 5 5 0 0
BITMAP
70
A0
70
28
70
ENDCHAR
STARTCHAR percent
ENCODING 37
SWIDTH 685 0
DWIDTH 5 0
BBX 4 6 0 0
BITMAP
80
90
20
40
90
10
ENDCHAR
STARTCHAR ampersand
ENCODING 38
SWIDTH 685 0
DWIDTH 5 0
BBX 4 5 0 0
BITMAP
40
A0
40
A0
50
ENDCHAR
STARTCHAR quotesingle
ENCODING 39
SWIDTH 685 0
DWIDTH 5 0
BBX 1 3 2 3
BITMAP
80
80
80
ENDCHAR
STARTCHAR parenleft
ENCODING 40
SWIDTH 685 0
DWIDTH 5 0
BBX 2 6 1 0
BITMAP
40
80
80
80
80
40
ENDCHAR
STARTCHAR parenright
ENCODING 41
SWIDTH 685 0
DWIDTH 5 0
BBX 2 6 1 0
BITMAP
80
40
40
40
40
80
ENDCHAR
STARTCHAR asterisk
ENCODING 42
SWIDTH 685 0
DWIDTH 5 0
BBX 3 5 1 0
BITMAP
A0
40
E0
40
A0
ENDCHAR
STARTCHAR plus
ENCODING 43
SWIDTH 685 0
DWIDTH 5 0
BBX 5 5 0 0
BITMAP
20
20
F8
20
20
ENDCHAR
STARTCHAR comma
ENCODING 44
SWIDTH 685 0
DWIDTH 5 0
BBX 3 3 1 -1
BITMAP
60
40
80
ENDCHAR
STARTCHAR hyphen
ENCODING 45
SWIDTH 685 0
DWIDTH 5 0
BBX 3 1 1 2
BITMAP
E0
ENDCHAR
STARTCHAR period
ENCODING 46
SWIDTH 685 0
DWIDTH 5 0
BBX 2 2 1 0
BITMAP
C0
C0
ENDCHAR
STARTCHAR slash
ENCODING 47
SWIDTH 685 0
DWIDTH 5 0
BBX 4 4 0 1
BITMAP
10
20
40
80
ENDCHAR
STARTCHAR zero
ENCODING 48
SWIDTH 685 0
DWIDTH 5 0
BBX 3 6 1 0
BITMAP
40
A0
A0
A0
A0
40
ENDCHAR
STARTCHAR one
ENCODING 49
SWIDTH 685 0
DWIDTH 5 0
BBX 3 6 1 0
BITMAP
40
C0
40
40
40
E0
ENDCHAR
STARTCHAR two
ENCODING 50
SWIDTH 685 0
DWIDTH 5 0
BBX 4 6 0 0
BITMAP
60
90
10
20
40
F0
ENDCHAR
STARTCHAR three
ENCODING 51
SWIDTH 685 0
DWIDTH 5 0
BBX 4 6 0 0
BITMAP
F0
10
60
10
90
60
ENDCHAR
STARTCHAR four
ENCODING 52
SWIDTH 685 0
DWIDTH 5 0
BBX 4 6 0 0
BITMAP
20
60
A0
F0
20
20
ENDCHAR
STARTCHAR five
ENCODING 53
SWIDTH 685 0
DWIDTH 5 0
BBX 4 6 0 0
BITMAP
F0
80
E0
10
90
60
ENDCHAR
STARTCHAR six
ENCODING 54
SWIDTH 685 0
DWIDTH 5 0
BBX 4 6 0 0
BITMAP
60
80
E0
90
90
60
ENDCHAR
STARTCHAR seven
ENCODING 55
SWIDTH 685 0
DWIDTH 5 0
BBX 4 6 0 0
BITMAP
F0
10
20
20
40
40
ENDCHAR
STARTCHAR eight
ENCODING 56
SWIDTH 685 0
DWIDTH 5 0
BBX 4 6 0 0
BITMAP
60
90
60
90
90
60
ENDCHAR
STARTCHAR nine
ENCODING 57
SWIDTH 685 0
DWIDTH 5 0
BBX 4 6 0 0
BITMAP
60
90
90
70
10
60
ENDCHAR
STARTCHAR colon
ENCODING 58
SWIDTH 685 0
DWIDTH 5 0
BBX 2 5 1 0
BITMAP
C0
C0
00
C0
C0
ENDCHAR
STARTCHAR semicolon
ENCODING 59
SWIDTH 685 0
DWIDTH 5 0
BBX 3 6 0 -1
BITMAP
60
60
00
60
40
80
ENDCHAR
STARTCHAR less
ENCODING 60
SWIDTH 685 0
DWIDTH 5 0
BBX 3 5 1 0
BITMAP
20
40
80
40
20
ENDCHAR
STARTCHAR equal
ENCODING 61
SWIDTH 685 0
DWIDTH 5 0
BBX 4 3 0 1
BITMAP
F0
00
F0
ENDCHAR
STARTCHAR greater
ENCODING 62
SWIDTH 685 0
DWIDTH 5 0
BBX 3 5 1 0
BITMAP
80
40
20
40
80
ENDCHAR
STARTCHAR question
ENCODING 63
SWIDTH 685 0
DWIDTH 5 0
BBX 3 6 1 0
BITMAP
40
A0
20
40
00
40
ENDCHAR
STARTCHAR at
ENCODING 64
SWIDTH 685 0
DWIDTH 5 0
BBX 4 6 0 0
BITMAP
60
90
B0
B0
80
60
ENDCHAR
STARTCHAR A
ENCODING 65
SWIDTH 685 0
DWIDTH 5 0
BBX 4 6 0 0
BITMAP
60
90
90
F0
90
90
ENDCHAR
STARTCHAR B
ENCODING 66
SWIDTH 685 0
DWIDTH 5 0
BBX 4 6 0 0
BITMAP
E0
90
E0
90
90
E0
ENDCHAR
STARTCHAR C
ENCODING 67
SWIDTH 685 0
DWIDTH 5 0
BBX 4 6 0 0
BITMAP
60
90
80
80
90
60
ENDCHAR
STARTCHAR D
ENCODING 68
SWIDTH 685 0
DWIDTH 5 0
BBX 4 6 0 0
BITMAP
E0
90
90
90
90
E0
ENDCHAR
STARTCHAR E
ENCODING 69
SWIDTH 685 0
DWIDTH 5 0
BBX 4 6 0 0
BITMAP
F0
80
E0
80
80
F0
ENDCHAR
STARTCHAR F
ENCODING 70
SWIDTH 685 0
DWIDTH 5 0
BBX 4 6 0 0
BITMAP
F0
80
E0
80
80
80
ENDCHAR
STARTCHAR G
ENCODING 71
SWIDTH 685 0
DWIDTH 5 0
BBX 4 6 0 0
BITMAP
60
90
80
B0
90
70
ENDCHAR
STARTCHAR H
ENCODING 72
SWIDTH 685 0
DWIDTH 5 0
BBX 4 6 0 0
BITMAP
90
90
F0
90
90
90
ENDCHAR
STARTCHAR I
ENCODING 73
SWIDTH 685 0
DWIDTH 5 0
BBX 3 6 1 0
BITMAP
E0
40
40
40
40
E0
ENDCHAR
STARTCHAR J
ENCODING 74
SWIDTH 685 0
DWIDTH 5 0
BBX 4 6 0 0
BITMAP
10
10
10
10
90
60
ENDCHAR
STARTCHAR K
ENCODING 75
SWIDTH 685 0
DWIDTH 5 0
BBX 4 6 0 0
BITMAP
90
A0
C0
C0
A0
90
ENDCHAR
STARTCHAR L
ENCODING 76
SWIDTH 685 0
DWIDTH 5 0
BBX 4 6 0 0
BITMAP
80
80
80
80
80
F0
ENDCHAR
STARTCHAR M
ENCODING 77
SWIDTH 857 0
DWIDTH 6 0
BBX 5 6 0 0
BITMAP
88
D8
A8
88
88
88
ENDCHAR
STARTCHAR N
ENCODING 78
SWIDTH 685 0
DWIDTH 5 0
BBX 4 6 0 0
BITMAP
90
D0
D0
B0
B0
90
ENDCHAR
STARTCHAR O
ENCODING 79
SWIDTH 685 0
DWIDTH 5 0
BBX 4 6 0 0
BITMAP
60
90
90
90
90
60
ENDCHAR
STARTCHAR P
ENCODING 80
SWIDTH 685 0
DWIDTH 5 0
BBX 4 6 0 0
BITMAP
E0
90
90
E0
80
80
ENDCHAR
STARTCHAR Q
ENCODING 81
SWIDTH 685 0
DWIDTH 5 0
BBX 4 7 0 -1
BITMAP
60
90
90
90
D0
60
10
ENDCHAR
STARTCHAR R
ENCODING 82
SWIDTH 685 0
DWIDTH 5 0
BBX 4 6 0 0
BITMAP
E0
90
90
E0
A0
90
ENDCHAR
STARTCHAR S
ENCODING 83
SWIDTH 685 0
DWIDTH 5 0
BBX 4 6 0 0
BITMAP
60
90
40
20
90
60
ENDCHAR
STARTCHAR T
ENCODING 84
SWIDTH 685 0
DWIDTH 5 0
BBX 3 6 1 0
BITMAP
E0
40
40
40
40
40
ENDCHAR
STARTCHAR U
ENCODING 85
SWIDTH 685 0
DWIDTH 5 0
BBX 4 6 0 0
BITMAP
90
90
90
90
90
60
ENDCHAR
STARTCHAR V
ENCODING 86
SWIDTH 685 0
DWIDTH 5 0
BBX 4 6 0 0
BITMAP
90
90
90
90
60
60
ENDCHAR
STARTCHAR W
ENCODING 87
SWIDTH 857 0
DWIDTH 6 0
BBX 5 6 0 0
BITMAP
88
88
A8
A8
A8
D8
ENDCHAR
STARTCHAR X
ENCODING 88
SWIDTH 685 0
DWIDTH 5 0
BBX 4 6 0 0
BITMAP
90
90
60
60
90
90
ENDCHAR
STARTCHAR Y
ENCODING 89
SWIDTH 685 0
DWIDTH 5 0
BBX 3 6 1 0
BITMAP
A0
A0
A0
A0
40
40
ENDCHAR
STARTCHAR Z
ENCODING 90
SWIDTH 685 0
DWIDTH 5 0
BBX 4 6 0 0
BITMAP
F0
10
20
40
80
F0
ENDCHAR
STARTCHAR bracketleft
ENCODING 91
SWIDTH 685 0
DWIDTH 5 0
BBX 3 6 1 0
BITMAP
E0
80
80
80
80
E0
ENDCHAR
STARTCHAR backslash
ENCODING 92
SWIDTH 685 0
DWIDTH 5 0
BBX 4 4 0 1
BITMAP
80
40
20
10
ENDCHAR
STARTCHAR bracketright
ENCODING 93
SWIDTH 685 0
DWIDTH 5 0
BBX 3 6 1 0
BITMAP
E0
20
20
20
20
E0
ENDCHAR
STARTCHAR asciicircum
ENCODING 94
SWIDTH 685 0
DWIDTH 5 0
BBX 3 2 1 4
BITMAP
40
A0
ENDCHAR
STARTCHAR underscore
ENCODING 95
SWIDTH 685 0
DWIDTH 5 0
BBX 4 1 0 0
BITMAP
F0
ENDCHAR
STARTCHAR grave
ENCODING 96
SWIDTH 685 0
DWIDTH 5 0
BBX 2 2 1 4
BITMAP
80
40
ENDCHAR
STARTCHAR a
ENCODING 97
SWIDTH 685 0
DWIDTH 5 0
BBX 4 4 0 0
BITMAP
70
90
B0
50
ENDCHAR
STARTCHAR b
ENCODING 98
SWIDTH 685 0
DWIDTH 5 0
BBX 4 6 0 0
BITMAP
80
80
E0
90
90
E0
ENDCHAR
STARTCHAR c
ENCODING 99
SWIDTH 685 0
DWIDTH 5 0
BBX 3 4 0 0
BITMAP
60
80
80
60
ENDCHAR
STARTCHAR d
ENCODING 100
SWIDTH 685 0
DWIDTH 5 0
BBX 4 6 0 0
BITMAP
10
10
70
90
90
70
ENDCHAR
STARTCHAR e
ENCODING 101
SWIDTH 685 0
DWIDTH 5 0
BBX 4 4 0 0
BITMAP
60
B0
C0
60
ENDCHAR
STARTCHAR f
ENCODING 102
SWIDTH 685 0
DWIDTH 5 0
BBX 4 6 0 0
BITMAP
20
50
40
E0
40
40
ENDCHAR
STARTCHAR g
ENCODING 103
SWIDTH 685 0
DWIDTH 5 0
BBX 4 5 0 -1
BITMAP
70
90
60
80
70
ENDCHAR
STARTCHAR h
ENCODING 104
SWIDTH 685 0
DWIDTH 5 0
BBX 4 6 0 0
BITMAP
80
80
E0
90
90
90
ENDCHAR
STARTCHAR i
ENCODING 105
SWIDTH 685 0
DWIDTH 5 0
BBX 3 6 1 0
BITMAP
40
00
C0
40
40
E0
ENDCHAR
STARTCHAR j
ENCODING 106
SWIDTH 685 0
DWIDTH 5 0
BBX 3 7 1 -1
BITMAP
20
00
20
20
20
A0
40
ENDCHAR
STARTCHAR k
ENCODING 107
SWIDTH 685 0
DWIDTH 5 0
BBX 4 6 0 0
BITMAP
80
80
A0
C0
A0
90
ENDCHAR
STARTCHAR l
ENCODING 108
SWIDTH 685 0
DWIDTH 5 0
BBX 3 6 1 0
BITMAP
C0
40
40
40
40
E0
ENDCHAR
STARTCHAR m
ENCODING 109
SWIDTH 857 0
DWIDTH 6 0
BBX 5 4 0 0
BITMAP
F0
A8
A8
A8
ENDCHAR
STARTCHAR n
ENCODING 110
SWIDTH 685 0
DWIDTH 5 0
BBX 4 4 0 0
BITMAP
E0
90
90
90
ENDCHAR
STARTCHAR o
ENCODING 111
SWIDTH 685 0
DWIDTH 5 0
BBX 4 4 0 0
BITMAP
60
90
90
60
ENDCHAR
STARTCHAR p
ENCODING 112
SWIDTH 685 0
DWIDTH 5 0
BBX 4 5 0 -1
BITMAP
E0
90
90
E0
80
ENDCHAR
STARTCHAR q
ENCODING 113
SWIDTH 685 0
DWIDTH 5 0
BBX 4 5 0 -1
BITMAP
70
90
90
70
10
ENDCHAR
STARTCHAR r
ENCODING 114
SWIDTH 685 0
DWIDTH 5 0
BBX 4 4 0 0
BITMAP
E0
90
80
80
ENDCHAR
STARTCHAR s
ENCODING 115
SWIDTH 685 0
DWIDTH 5 0
BBX 4 4 0 0
BITMAP
70
C0
30
E0
ENDCHAR
STARTCHAR t
ENCODING 116
SWIDTH 685 0
DWIDTH 5 0
BBX 4 6 0 0
BITMAP
40
40
E0
40
40
30
ENDCHAR
STARTCHAR u
ENCODING 117
SWIDTH 685 0
DWIDTH 5 0
BBX 4 4 0 0
BITMAP
90
90
90
70
ENDCHAR
STARTCHAR v
ENCODING 118
SWIDTH 685 0
DWIDTH 5 0
BBX 3 4 1 0
BITMAP
A0
A0
A0
40
ENDCHAR
STARTCHAR w
ENCODING 119
SWIDTH 857 0
DWIDTH 6 0
BBX 5 4 0 0
BITMAP
88
88
A8
50
ENDCHAR
STARTCHAR x
ENCODING 120
SWIDTH 685 0
DWIDTH 5 0
BBX 4 4 0 0
BITMAP
90
60
60
90
ENDCHAR
STARTCHAR y
ENCODING 121
SWIDTH 685 0
DWIDTH 5 0
BBX 4 5 0 -1
BITMAP
90
90
50
20
40
ENDCHAR
STARTCHAR z
ENCODING 122
SWIDTH 685 0
DWIDTH 5 0
BBX 4 4 0 0
BITMAP
F0
20
40
F0
ENDCHAR
STARTCHAR braceleft
ENCODING 123
SWIDTH 685 0
DWIDTH 5 0
BBX 3 6 1 0
BITMAP
20
40
C0
40
40
20
ENDCHAR
STARTCHAR bar
ENCODING 124
SWIDTH 685 0
DWIDTH 5 0
BBX 1 6 2 0
BITMAP
80
80
80
80
80
80
ENDCHAR
STARTCHAR braceright
ENCODING 125
SWIDTH 685 0
DWIDTH 5 0
BBX 3 6 1 0
BITMAP
80
40
60
40
40
80
ENDCHAR
STARTCHAR asciitilde
ENCODING 126
SWIDTH 685 0
DWIDTH 5 0
BBX 4 2 0 4
BITMAP
50
A0
ENDCHAR
STARTCHAR afii10023
ENCODING 161
SWIDTH 714 0
DWIDTH 5 0
BBX 4 6 0 0
BITMAP
F0
80
E0
80
80
F0
ENDCHAR
STARTCHAR afii10051
ENCODING 162
SWIDTH 714 0
DWIDTH 5 0
BBX 4 7 0 -1
BITMAP
E0
40
60
50
50
10
20
ENDCHAR
STARTCHAR afii10052
ENCODING 163
SWIDTH 714 0
DWIDTH 5 0
BBX 4 6 0 0
BITMAP
F0
80
80
80
80
80
ENDCHAR
STARTCHAR afii10053
ENCODING 164
SWIDTH 714 0
DWIDTH 5 0
BBX 4 6 0 0
BITMAP
60
90
C0
80
90
60
ENDCHAR
STARTCHAR afii10054
ENCODING 165
SWIDTH 714 0
DWIDTH 5 0
BBX 4 6 0 0
BITMAP
60
90
40
20
90
60
ENDCHAR
STARTCHAR afii10055
ENCODING 166
SWIDTH 714 0
DWIDTH 5 0
BBX 3 6 1 0
BITMAP
E0
40
40
40
40
E0
ENDCHAR
STARTCHAR afii10056
ENCODING 167
SWIDTH 714 0
DWIDTH 5 0
BBX 3 6 1 0
BITMAP
E0
40
40
40
40
E0
ENDCHAR
STARTCHAR afii10057
ENCODING 168
SWIDTH 714 0
DWIDTH 5 0
BBX 4 6 0 0
BITMAP
10
10
10
10
90
60
ENDCHAR
STARTCHAR afii10058
ENCODING 169
SWIDTH 714 0
DWIDTH 5 0
BBX 5 6 0 0
BITMAP
60
A0
B0
A8
A8
B0
ENDCHAR
STARTCHAR afii10059
ENCODING 170
SWIDTH 714 0
DWIDTH 5 0
BBX 5 6 0 0
BITMAP
A0
A0
F0
A8
A8
B0
ENDCHAR
STARTCHAR afii10060
ENCODING 171
SWIDTH 714 0
DWIDTH 5 0
BBX 4 6 0 0
BITMAP
E0
40
60
50
50
50
ENDCHAR
STARTCHAR afii10061
ENCODING 172
SWIDTH 714 0
DWIDTH 5 0
BBX 4 6 0 0
BITMAP
90
A0
C0
C0
A0
90
ENDCHAR
STARTCHAR uni00AD
ENCODING 173
SWIDTH 714 0
DWIDTH 5 0
BBX 3 1 1 3
BITMAP
E0
ENDCHAR
STARTCHAR afii10062
ENCODING 174
SWIDTH 714 0
DWIDTH 5 0
BBX 3 6 1 0
BITMAP
A0
A0
A0
40
40
80
ENDCHAR
STARTCHAR afii10145
ENCODING 175
SWIDTH 714 0
DWIDTH 5 0
BBX 3 7 1 -1
BITMAP
A0
A0
A0
A0
A0
E0
40
ENDCHAR
STARTCHAR afii10017
ENCODING 176
SWIDTH 714 0
DWIDTH 5 0
BBX 4 6 0 0
BITMAP
60
90
90
F0
90
90
ENDCHAR
STARTCHAR afii10018
ENCODING 177
SWIDTH 714 0
DWIDTH 5 0
BBX 4 6 0 0
BITMAP
E0
80
E0
90
90
E0
ENDCHAR
STARTCHAR afii10019
ENCODING 178
SWIDTH 714 0
DWIDTH 5 0
BBX 4 6 0 0
BITMAP
E0
90
E0
90
90
E0
ENDCHAR
STARTCHAR afii10020
ENCODING 179
SWIDTH 714 0
DWIDTH 5 0
BBX 4 6 0 0
BITMAP
F0
90
80
80
80
80
ENDCHAR
STARTCHAR afii10021
ENCODING 180
SWIDTH 714 0
DWIDTH 5 0
BBX 4 7 0 -1
BITMAP
30
50
50
50
50
F0
90
ENDCHAR
STARTCHAR afii10022
ENCODING 181
SWIDTH 714 0
DWIDTH 5 0
BBX 4 6 0 0
BITMAP
F0
80
E0
80
80
F0
ENDCHAR
STARTCHAR afii10024
ENCODING 182
SWIDTH 714 0
DWIDTH 5 0
BBX 5 6 0 0
BITMAP
A8
A8
70
70
A8
A8
ENDCHAR
STARTCHAR afii10025
ENCODING 183
SWIDTH 714 0
DWIDTH 5 0
BBX 4 6 0 0
BITMAP
E0
10
60
10
90
60
ENDCHAR
STARTCHAR afii10026
ENCODING 184
SWIDTH 714 0
DWIDTH 5 0
BBX 4 6 0 0
BITMAP
90
B0
B0
D0
D0
90
ENDCHAR
STARTCHAR afii10027
ENCODING 185
SWIDTH 714 0
DWIDTH 5 0
BBX 4 6 0 0
BITMAP
D0
B0
B0
D0
D0
90
ENDCHAR
STARTCHAR afii10028
ENCODING 186
SWIDTH 714 0
DWIDTH 5 0
BBX 4 6 0 0
BITMAP
90
A0
C0
C0
A0
90
ENDCHAR
STARTCHAR afii10029
ENCODING 187
SWIDTH 714 0
DWIDTH 5 0
BBX 4 6 0 0
BITMAP
30
50
50
50
50
90
ENDCHAR
STARTCHAR afii10030
ENCODING 188
SWIDTH 857 0
DWIDTH 6 0
BBX 5 6 0 0
BITMAP
88
D8
A8
88
88
88
ENDCHAR
STARTCHAR afii10031
ENCODING 189
SWIDTH 714 0
DWIDTH 5 0
BBX 4 6 0 0
BITMAP
90
90
F0
90
90
90
ENDCHAR
STARTCHAR afii10032
ENCODING 190
SWIDTH 714 0
DWIDTH 5 0
BBX 4 6 0 0
BITMAP
60
90
90
90
90
60
ENDCHAR
STARTCHAR afii10033
ENCODING 191
SWIDTH 714 0
DWIDTH 5 0
BBX 4 6 0 0
BITMAP
F0
90
90
90
90
90
ENDCHAR
STARTCHAR afii10034
ENCODING 192
SWIDTH 714 0
DWIDTH 5 0
BBX 4 6 0 0
BITMAP
E0
90
90
E0
80
80
ENDCHAR
STARTCHAR afii10035
ENCODING 193
SWIDTH 714 0
DWIDTH 5 0
BBX 4 6 0 0
BITMAP
60
90
80
80
90
60
ENDCHAR
STARTCHAR afii10036
ENCODING 194
SWIDTH 714 0
DWIDTH 5 0
BBX 5 6 0 0
BITMAP
F8
20
20
20
20
20
ENDCHAR
STARTCHAR afii10037
ENCODING 195
SWIDTH 714 0
DWIDTH 5 0
BBX 3 6 1 0
BITMAP
A0
A0
A0
40
40
80
ENDCHAR
STARTCHAR afii10038
ENCODING 196
SWIDTH 714 0
DWIDTH 5 0
BBX 5 6 0 0
BITMAP
20
70
A8
A8
70
20
ENDCHAR
STARTCHAR afii10039
ENCODING 197
SWIDTH 714 0
DWIDTH 5 0
BBX 4 6 0 0
BITMAP
90
90
60
60
90
90
ENDCHAR
STARTCHAR afii10040
ENCODING 198
SWIDTH 714 0
DWIDTH 5 0
BBX 4 7 0 -1
BITMAP
90
90
90
90
90
F0
10
ENDCHAR
STARTCHAR afii10041
ENCODING 199
SWIDTH 714 0
DWIDTH 5 0
BBX 4 6 0 0
BITMAP
90
90
90
70
10
10
ENDCHAR
STARTCHAR afii10042
ENCODING 200
SWIDTH 714 0
DWIDTH 5 0
BBX 5 6 0 0
BITMAP
A8
A8
A8
A8
A8
F8
ENDCHAR
STARTCHAR afii10043
ENCODING 201
SWIDTH 714 0
DWIDTH 5 0
BBX 5 7 0 -1
BITMAP
A8
A8
A8
A8
A8
F8
08
ENDCHAR
STARTCHAR afii10044
ENCODING 202
SWIDTH 714 0
DWIDTH 5 0
BBX 4 6 0 0
BITMAP
C0
40
60
50
50
60
ENDCHAR
STARTCHAR afii10045
ENCODING 203
SWIDTH 714 0
DWIDTH 5 0
BBX 4 6 0 0
BITMAP
90
90
D0
B0
B0
D0
ENDCHAR
STARTCHAR afii10046
ENCODING 204
SWIDTH 714 0
DWIDTH 5 0
BBX 4 6 0 0
BITMAP
80
80
E0
90
90
E0
ENDCHAR
STARTCHAR afii10047
ENCODING 205
SWIDTH 714 0
DWIDTH 5 0
BBX 4 6 0 0
BITMAP
60
90
30
10
90
60
ENDCHAR
STARTCHAR afii10048
ENCODING 206
SWIDTH 714 0
DWIDTH 5 0
BBX 4 6 0 0
BITMAP
A0
D0
D0
D0
D0
A0
ENDCHAR
STARTCHAR afii10049
ENCODING 207
SWIDTH 714 0
DWIDTH 5 0
BBX 4 6 0 0
BITMAP
70
90
90
70
50
90
ENDCHAR
STARTCHAR afii10065
ENCODING 208
SWIDTH 714 0
DWIDTH 5 0
BBX 4 4 0 0
BITMAP
70
90
B0
50
ENDCHAR
STARTCHAR afii10066
ENCODING 209
SWIDTH 714 0
DWIDTH 5 0
BBX 4 5 0 0
BITMAP
60
80
E0
90
60
ENDCHAR
STARTCHAR afii10067
ENCODING 210
SWIDTH 714 0
DWIDTH 5 0
BBX 4 4 0 0
BITMAP
E0
A0
90
E0
ENDCHAR
STARTCHAR afii10068
ENCODING 211
SWIDTH 714 0
DWIDTH 5 0
BBX 4 4 0 0
BITMAP
F0
80
80
80
ENDCHAR
STARTCHAR afii10069
ENCODING 212
SWIDTH 714 0
DWIDTH 5 0
BBX 4 5 0 -1
BITMAP
30
50
50
F0
90
ENDCHAR
STARTCHAR afii10070
ENCODING 213
SWIDTH 714 0
DWIDTH 5 0
BBX 4 4 0 0
BITMAP
60
B0
C0
60
ENDCHAR
STARTCHAR afii10072
ENCODING 214
SWIDTH 714 0
DWIDTH 5 0
BBX 5 4 0 0
BITMAP
A8
70
70
A8
ENDCHAR
STARTCHAR afii10073
ENCODING 215
SWIDTH 571 0
DWIDTH 4 0
BBX 3 5 0 -1
BITMAP
E0
20
60
A0
C0
ENDCHAR
STARTCHAR afii10074
ENCODING 216
SWIDTH 714 0
DWIDTH 5 0
BBX 4 4 0 0
BITMAP
90
B0
D0
90
ENDCHAR
STARTCHAR afii10075
ENCODING 217
SWIDTH 714 0
DWIDTH 5 0
BBX 4 6 0 0
BITMAP
60
00
90
B0
D0
90
ENDCHAR
STARTCHAR afii10076
ENCODING 218
SWIDTH 714 0
DWIDTH 5 0
BBX 4 4 0 0
BITMAP
90
E0
A0
90
ENDCHAR
STARTCHAR afii10077
ENCODING 219
SWIDTH 714 0
DWIDTH 5 0
BBX 4 4 0 0
BITMAP
30
50
50
90
ENDCHAR
STARTCHAR afii10078
ENCODING 220
SWIDTH 857 0
DWIDTH 6 0
BBX 5 4 0 0
BITMAP
88
D8
A8
A8
ENDCHAR
STARTCHAR afii10079
ENCODING 221
SWIDTH 714 0
DWIDTH 5 0
BBX 4 4 0 0
BITMAP
90
F0
90
90
ENDCHAR
STARTCHAR afii10080
ENCODING 222
SWIDTH 714 0
DWIDTH 5 0
BBX 4 4 0 0
BITMAP
60
90
90
60
ENDCHAR
STARTCHAR afii10081
ENCODING 223
SWIDTH 714 0
DWIDTH 5 0
BBX 4 4 0 0
BITMAP
F0
90
90
90
ENDCHAR
STARTCHAR afii10082
ENCODING 224
SWIDTH 714 0
DWIDTH 5 0
BBX 4 5 0 -1
BITMAP
E0
90
90
E0
80
ENDCHAR
STARTCHAR afii10083
ENCODING 225
SWIDTH 714 0
DWIDTH 5 0
BBX 3 4 0 0
BITMAP
60
80
80
60
ENDCHAR
STARTCHAR afii10084
ENCODING 226
SWIDTH 571 0
DWIDTH 4 0
BBX 3 4 0 0
BITMAP
E0
40
40
40
ENDCHAR
STARTCHAR afii10085
ENCODING 227
SWIDTH 714 0
DWIDTH 5 0
BBX 4 5 0 -1
BITMAP
90
90
50
20
40
ENDCHAR
STARTCHAR afii10086
ENCODING 228
SWIDTH 857 0
DWIDTH 6 0
BBX 5 5 0 -1
BITMAP
70
A8
70
20
20
ENDCHAR
STARTCHAR afii10087
ENCODING 229
SWIDTH 571 0
DWIDTH 4 0
BBX 3 4 0 0
BITMAP
A0
40
40
A0
ENDCHAR
STARTCHAR afii10088
ENCODING 230
SWIDTH 714 0
DWIDTH 5 0
BBX 4 5 0 -1
BITMAP
90
90
90
F0
10
ENDCHAR
STARTCHAR afii10089
ENCODING 231
SWIDTH 714 0
DWIDTH 5 0
BBX 4 4 0 0
BITMAP
90
90
70
10
ENDCHAR
STARTCHAR afii10090
ENCODING 232
SWIDTH 857 0
DWIDTH 6 0
BBX 5 4 0 0
BITMAP
A8
A8
A8
F8
ENDCHAR
STARTCHAR afii10091
ENCODING 233
SWIDTH 857 0
DWIDTH 6 0
BBX 5 5 0 -1
BITMAP
A8
A8
A8
F8
08
ENDCHAR
STARTCHAR afii10092
ENCODING 234
SWIDTH 714 0
DWIDTH 5 0
BBX 4 4 0 0
BITMAP
C0
60
50
60
ENDCHAR
STARTCHAR afii10093
ENCODING 235
SWIDTH 714 0
DWIDTH 5 0
BBX 4 4 0 0
BITMAP
90
D0
B0
D0
ENDCHAR
STARTCHAR afii10094
ENCODING 236
SWIDTH 571 0
DWIDTH 4 0
BBX 3 4 0 0
BITMAP
80
E0
A0
E0
ENDCHAR
STARTCHAR afii10095
ENCODING 237
SWIDTH 714 0
DWIDTH 5 0
BBX 3 4 1 0
BITMAP
E0
60
20
E0
ENDCHAR
STARTCHAR afii10096
ENCODING 238
SWIDTH 714 0
DWIDTH 5 0
BBX 4 4 0 0
BITMAP
A0
D0
D0
A0
ENDCHAR
STARTCHAR afii10097
ENCODING 239
SWIDTH 571 0
DWIDTH 4 0
BBX 3 4 0 0
BITMAP
60
A0
60
A0
ENDCHAR
STARTCHAR afii61352
ENCODING 240
SWIDTH 714 0
DWIDTH 5 0
BBX 5 6 0 0
BITMAP
18
08
90
D0
B0
90
ENDCHAR
STARTCHAR afii10071
ENCODING 241
SWIDTH 714 0
DWIDTH 5 0
BBX 4 6 0 0
BITMAP
A0
00
60
B0
C0
60
ENDCHAR
STARTCHAR afii10099
ENCODING 242
SWIDTH 714 0
DWIDTH 5 0
BBX 4 7 0 -1
BITMAP
40
E0
40
60
50
10
20
ENDCHAR
STARTCHAR afii10100
ENCODING 243
SWIDTH 714 0
DWIDTH 5 0
BBX 4 6 0 0
BITMAP
20
40
F0
80
80
80
ENDCHAR
STARTCHAR afii10101
ENCODING 244
SWIDTH 714 0
DWIDTH 5 0
BBX 3 4 1 0
BITMAP
60
C0
80
60
ENDCHAR
STARTCHAR afii10102
ENCODING 245
SWIDTH 714 0
DWIDTH 5 0
BBX 4 4 0 0
BITMAP
70
C0
30
E0
ENDCHAR
STARTCHAR afii10103
ENCODING 246
SWIDTH 714 0
DWIDTH 5 0
BBX 3 6 1 0
BITMAP
40
00
C0
40
40
E0
ENDCHAR
STARTCHAR afii10104
ENCODING 247
SWIDTH 714 0
DWIDTH 5 0
BBX 3 6 1 0
BITMAP
A0
00
C0
40
40
E0
ENDCHAR
STARTCHAR afii10105
ENCODING 248
SWIDTH 714 0
DWIDTH 5 0
BBX 3 7 1 -1
BITMAP
20
00
20
20
20
A0
40
ENDCHAR
STARTCHAR afii10106
ENCODING 249
SWIDTH 714 0
DWIDTH 5 0
BBX 5 4 0 0
BITMAP
60
B8
A8
B0
ENDCHAR
STARTCHAR afii10107
ENCODING 250
SWIDTH 714 0
DWIDTH 5 0
BBX 5 4 0 0
BITMAP
A0
F0
A8
B0
ENDCHAR
STARTCHAR afii10108
ENCODING 251
SWIDTH 714 0
DWIDTH 5 0
BBX 5 6 0 0
BITMAP
40
E0
40
70
48
48
ENDCHAR
STARTCHAR afii10109
ENCODING 252
SWIDTH 714 0
DWIDTH 5 0
BBX 4 6 0 0
BITMAP
20
40
90
E0
A0
90
ENDCHAR
STARTCHAR section
ENCODING 253
SWIDTH 714 0
DWIDTH 5 0
BBX 3 6 1 0
BITMAP
60
A0
C0
60
20
C0
ENDCHAR
STARTCHAR afii10110
ENCODING 254
SWIDTH 714 0
DWIDTH 5 0
BBX 4 7 0 -1
BITMAP
90
60
00
90
50
20
40
ENDCHAR
STARTCHAR afii10193
ENCODING 255
SWIDTH 714 0
DWIDTH 5 0
BBX 3 5 1 -1
BITMAP
A0
A0
A0
E0
40
ENDCHAR
ENDFONT
